<?xml version="1.0" encoding="UTF-8" standalone="no"?>
<svg
   xmlns:dc="http://purl.org/dc/elements/1.1/"
   xmlns:cc="http://creativecommons.org/ns#"
   xmlns:rdf="http://www.w3.org/1999/02/22-rdf-syntax-ns#"
   xmlns:svg="http://www.w3.org/2000/svg"
   xmlns="http://www.w3.org/2000/svg"
   viewBox="0 0 816 1056"
   height="1056"
   width="816"
   xml:space="preserve"
   id="svg2"
   version="1.1"><metadata
     id="metadata8"><rdf:RDF><cc:Work
         rdf:about=""><dc:format>image/svg+xml</dc:format><dc:type
           rdf:resource="http://purl.org/dc/dcmitype/StillImage" /></cc:Work></rdf:RDF></metadata><defs
     id="defs6" /><g
     transform="matrix(1.3333333,0,0,-1.3333333,0,1056)"
     id="g10"><text
       id="text14"
       style="font-variant:normal;font-weight:normal;font-size:24.78709984px;font-family:CMCSC10;-inkscape-font-specification:CMCSC10;writing-mode:lr-tb;fill:#000000;fill-opacity:1;fill-rule:nonzero;stroke:none"
       transform="matrix(1,0,0,-1,183.533,753.462)"><tspan
         id="tspan12"
         y="0"
         x="0 18.384592 33.311382 48.513313 63.990376 79.192307 94.394234 109.59616 128.10469 143.30663 167.87807 185.87103 201.07295 216.0047 229.00058">PradhyumanYadav</tspan></text>
<text
       id="text18"
       style="font-variant:normal;font-weight:normal;font-size:10.90909958px;font-family:CMR10;-inkscape-font-specification:CMR10;writing-mode:lr-tb;fill:#000000;fill-opacity:1;fill-rule:nonzero;stroke:none"
       transform="matrix(1,0,0,-1,144.564,738.917)"><tspan
         id="tspan16"
         y="0"
         x="0 5.4545498 14.54183 20.602926 26.360748 32.118572 36.361122 41.81567 51.520405 57.570595 61.813141 68.487328 74.548424 80.002975 89.6968 95.302986 100.75754 105.06009 109.90809 116.57137 124.44992 129.90446 132.93501 135.96556 139.29939 144.75394 149.02704 155.08813 158.11868 163.57323 170.24742 178.42924 184.49034 187.50998 191.75252 196.61143 206.30527 212.36636 216.6089 222.06346 226.306 231.15401 239.08929 244.54384 251.51039 259.69223 268.78278 273.64169 277.91476 280.93442 285.79333 294.88062 300.33517 305.7897 311.24426 316.69882">52SkytopSt,SanJose,California,UnitedStatesofAmerica95134</tspan></text>
<text
       id="text22"
       style="font-variant:normal;font-weight:normal;font-size:9.96259975px;font-family:CMR10;-inkscape-font-specification:CMR10;writing-mode:lr-tb;fill:#000000;fill-opacity:1;fill-rule:nonzero;stroke:none"
       transform="matrix(1,0,0,-1,94.182,725.965)"><tspan
         id="tspan20"
         y="0"
         x="0 4.9812999 9.9625998 14.9439 19.9252 24.9065 29.8878 34.869099 39.850399 44.831699 63.093147 68.628365 72.530716 77.512016 83.047234 88.303505 93.561768 99.096985 107.39882 112.38012 117.91534 120.68295 125.67222 130.65352 136.18874 140.89108 146.14935 153.89825 158.87956 166.07455 174.37639 179.35768 182.12529 184.8929 187.66052 192.64182 199.83681 205.37202 208.13963 212.56702 218.10223">5712594892pradhyuman.yadav@gwmail.gwu.edu</tspan></text>
<g
       transform="translate(157.279,722.633)"
       id="g24"><path
         id="path26"
         style="fill:none;stroke:#000000;stroke-width:0.398;stroke-linecap:butt;stroke-linejoin:miter;stroke-miterlimit:10;stroke-dasharray:none;stroke-opacity:1"
         d="M 0,0 H 160.537" /></g><text
       id="text30"
       style="font-variant:normal;font-weight:normal;font-size:9.96259975px;font-family:CMR10;-inkscape-font-specification:CMR10;writing-mode:lr-tb;fill:#000000;fill-opacity:1;fill-rule:nonzero;stroke:none"
       transform="matrix(1,0,0,-1,331.1,725.965)"><tspan
         id="tspan28"
         y="0"
         x="0 3.8744552 9.4096756 13.837055 19.372276 24.630535 27.398146 30.165756">thepk.in</tspan></text>
<g
       transform="translate(331.1,722.633)"
       id="g32"><path
         id="path34"
         style="fill:none;stroke:#000000;stroke-width:0.398;stroke-linecap:butt;stroke-linejoin:miter;stroke-miterlimit:10;stroke-dasharray:none;stroke-opacity:1"
         d="M 0,0 H 35.7" /></g><text
       id="text38"
       style="font-variant:normal;font-weight:normal;font-size:9.96259975px;font-family:CMR10;-inkscape-font-specification:CMR10;writing-mode:lr-tb;fill:#000000;fill-opacity:1;fill-rule:nonzero;stroke:none"
       transform="matrix(1,0,0,-1,380.083,725.965)"><tspan
         id="tspan36"
         y="0"
         x="0 4.9812999 7.7489104 11.623365 16.879633 22.414854 27.950075 30.717684 35.145065 40.126366 48.4282 53.4095 58.944717 62.847069 67.828369 73.363586 78.619858 83.87812 89.413338 97.715172 102.69647 108.2317 111.55223 116.53153 121.51283 127.04806 131.76036">github.com/pradhyuman-yadav</tspan></text>
<g
       transform="translate(380.083,722.08)"
       id="g40"><path
         id="path42"
         style="fill:none;stroke:#000000;stroke-width:0.398;stroke-linecap:butt;stroke-linejoin:miter;stroke-miterlimit:10;stroke-dasharray:none;stroke-opacity:1"
         d="M 0,0 H 137.014" /></g><text
       id="text46"
       style="font-variant:normal;font-weight:normal;font-size:9.96259975px;font-family:CMBX10;-inkscape-font-specification:CMBX10;writing-mode:lr-tb;fill:#000000;fill-opacity:1;fill-rule:nonzero;stroke:none"
       transform="matrix(1,0,0,-1,28.8,712.625)"><tspan
         id="tspan44"
         y="0"
         x="0 6.3651052 12.73021 22.27737 31.82453 37.393623 42.111912">Summary</tspan></text>
<text
       id="text54"
       style="font-variant:normal;font-weight:normal;font-size:9.96259975px;font-family:CMR10;-inkscape-font-specification:CMR10;writing-mode:lr-tb;fill:#000000;fill-opacity:1;fill-rule:nonzero;stroke:none"
       transform="matrix(1,0,0,-1,80.439,712.625)"><tspan
         id="tspan48"
         y="0"
         x="0 6.6380806 13.418626 18.676886 24.49106 28.91844 32.820789 35.588398 40.015778 45.550999 49.978378 54.405758 63.258526 67.187775 72.169075 75.213646 78.819107 85.735146 90.716446 94.618797 102.36372 106.7911 112.32632 117.30762 120.07523 125.61045 130.03783 134.46521 141.69507 148.89006 151.65767 155.53212 164.38489 168.81227 174.07053 179.8847 184.31209 188.21443 192.0889 194.85651 198.78575 206.53067 209.29828 218.15105 224.93159 230.18987 234.06432 239.59953 244.58084 250.11606 256.2012 261.32098 266.03329 270.73364 279.0325 284.01379 289.54901 298.41174 306.71359 309.4812 313.90857 317.81091 322.79224 326.72147 331.14886 335.05121 340.30948 343.07709 347.50446 351.93182 359.17862 364.15994 368.06229 372.21069 377.74594 380.51355 384.388 388.81537 393.25272 397.12717 402.65244 406.55478 410.98215 417.07727 422.05856 427.59378 432.02118 437.5564 444.74838 449.72971 456.92169 462.45691 466.88431 469.65192 472.41953 477.40878 481.83618 485.73853 488.50613 494.04135">-ExperiencedsoftwareengineerwithexpertiseinPython,Javaandmicroservicesarchitecture,adeptatdelivering</tspan><tspan
         id="tspan50"
         y="11.955"
         x="-51.639 -47.709751 -43.282372 -38.301071 -35.533463 -30.55216 -25.016941 -22.249331 -14.504405 -10.575155 -5.5938554 -2.8262451 2.7089756 6.5834308 9.3510408 14.332341 19.867561 27.124319 30.998774 36.533997 41.515297 48.707294 53.134674 58.669895 64.205116 69.186417 74.721634 79.149017 86.893944 90.823189 96.081451 100.0107 103.88515 108.31254 119.94188 125.75605 130.18343 134.08578 137.12039 142.10168 146.00404 154.30588 159.28717 164.82239 169.24977 173.68712 180.87813 188.35007 192.77745 196.6519 199.41951 204.39882 208.8262 211.59381 220.17958 224.10883 228.53621 232.96359 238.22185 240.98946 246.52469 254.82353 259.80484 265.34006 271.15424 276.13553 280.03787 283.91232 289.44754 294.98276 297.74042 301.61487 304.38248 308.81982 316.06662 319.94107 328.23993 331.00754 335.43491 340.41422 344.84158 348.74396 353.72525 358.70654 366.46143 371.44275 376.97797 381.67831 386.65961 392.19482 396.62222 401.04959 409.91232 417.38428 424.29932 429.28061 434.81583 443.66861 448.09598 450.86359 455.84488 461.3801">scalablesolutionsthatenhancesystemperformance.ActivelyseekingopportunitiestoleverageadvancedAIandcloud</tspan><tspan
         id="tspan52"
         y="23.91"
         x="-51.639 -47.764545 -43.337166 -39.18874 -33.653519 -28.118298 -23.136997 -20.369387 -15.388087 -10.406787 -7.6391773 -3.2117977 4.04496 6.8125706 15.665337 18.432947 23.968168 29.503387 34.205734 38.90609 43.88739 47.761845 50.529457 55.518726 63.263649 68.244949 73.780174 82.632935 85.400551 93.702385 99.237602 104.2189 108.64629 112.52074 115.56531 121.10053 127.18568 132.7209 136.62326 142.16246 145.20703 149.63441 154.0618 157.93625 161.86549">technologiesininnovativeandimpactfulprojects.</tspan></text>
<text
       id="text58"
       style="font-variant:normal;font-weight:normal;font-size:11.9552002px;font-family:CMBX12;-inkscape-font-specification:CMBX12;writing-mode:lr-tb;fill:#000000;fill-opacity:1;fill-rule:nonzero;stroke:none"
       transform="matrix(1,0,0,-1,28.8,669.852)"><tspan
         id="tspan56"
         y="0"
         x="0 8.8277197 15.925522 23.768133 29.904737 35.398151 39.134151 45.270756 52.742756 58.720356">Experience</tspan></text>
<g
       transform="translate(28.8,665.468)"
       id="g60"><path
         id="path62"
         style="fill:none;stroke:#000000;stroke-width:0.398;stroke-linecap:butt;stroke-linejoin:miter;stroke-miterlimit:10;stroke-dasharray:none;stroke-opacity:1"
         d="M 0,0 H 553.68" /></g><text
       id="text66"
       style="font-variant:normal;font-weight:normal;font-size:9.96259975px;font-family:CMBX10;-inkscape-font-specification:CMBX10;writing-mode:lr-tb;fill:#000000;fill-opacity:1;fill-rule:nonzero;stroke:none"
       transform="matrix(1,0,0,-1,28.8,653.071)"><tspan
         id="tspan64"
         y="0"
         x="0 8.6066904 14.971795 19.427071 25.792175 450.62201 456.54376 462.90887 469.90662 475.6351 481.36359 487.0921 496.64621 506.1904 514.85187 521.21698 530.76117 536.48962 542.21814 547.94666">OptumJul2022–Aug2023</tspan></text>
<text
       id="text70"
       style="font-variant:normal;font-weight:normal;font-size:9.96259975px;font-family:CMTI10;-inkscape-font-specification:CMTI10;writing-mode:lr-tb;fill:#000000;fill-opacity:1;fill-rule:nonzero;stroke:none"
       transform="matrix(1,0,0,-1,28.8,641.116)"><tspan
         id="tspan68"
         y="0"
         x="0 5.6009736 10.692859 13.748388 17.057964 23.677114 28.768999 32.462135 40.611542 47.369175 52.970146 57.552944 60.608475 66.20945 70.284149 74.866943 530.23401 534.07556 539.67657 544.76843 547.82397">SoftwareEngineerIndia</tspan></text>
<text
       id="text74"
       style="font-variant:normal;font-weight:normal;font-size:5.9776001px;font-family:CMSY6;-inkscape-font-specification:CMSY6;writing-mode:lr-tb;fill:#000000;fill-opacity:1;fill-rule:nonzero;stroke:none"
       transform="matrix(1,0,0,-1,43.526,631.38)"><tspan
         id="tspan72"
         y="0"
         x="0">•</tspan></text>
<text
       id="text78"
       style="font-variant:normal;font-weight:normal;font-size:9.96259975px;font-family:CMR10;-inkscape-font-specification:CMR10;writing-mode:lr-tb;fill:#000000;fill-opacity:1;fill-rule:nonzero;stroke:none"
       transform="matrix(1,0,0,-1,52.8,630.315)"><tspan
         id="tspan76"
         y="0"
         x="0 5.5352206 11.349394 15.776773 20.758074 24.660423 30.195644 34.623024 39.604324 45.139545 49.566925 58.419689 62.294144 67.829369 75.574287 81.109512 85.536888 89.466141 92.233749 97.21505 106.07778 111.05908 116.5943 125.44707 130.98228 135.40967 140.38898 144.81636 147.58397 152.56526 158.10048 166.40231 170.8297 176.08597 183.28793 188.26923 194.63135">Spearheadedthedesignanddevelopmentofa</tspan></text>
<text
       id="text82"
       style="font-variant:normal;font-weight:normal;font-size:9.96259975px;font-family:CMBX10;-inkscape-font-specification:CMBX10;writing-mode:lr-tb;fill:#000000;fill-opacity:1;fill-rule:nonzero;stroke:none"
       transform="matrix(1,0,0,-1,255.733,630.315)"><tspan
         id="tspan80"
         y="0"
         x="0 9.5471592 12.729214 17.821098 22.539387 28.267881 32.786915 38.038204 42.756489 48.802792 51.984848 57.076733 62.328018">microservices</tspan></text>
<text
       id="text86"
       style="font-variant:normal;font-weight:normal;font-size:9.96259975px;font-family:CMR10;-inkscape-font-specification:CMR10;writing-mode:lr-tb;fill:#000000;fill-opacity:1;fill-rule:nonzero;stroke:none"
       transform="matrix(1,0,0,-1,325.903,630.315)"><tspan
         id="tspan84"
         y="0"
         x="0 4.9812999 8.8836508 13.032077 18.567297 21.334908 25.209364 29.636742 34.064121 37.938576 43.473797 47.376148 55.131035 58.175606 63.156906 70.376801">architecturefora</tspan></text>
<text
       id="text90"
       style="font-variant:normal;font-weight:normal;font-size:9.96259975px;font-family:CMBX10;-inkscape-font-specification:CMBX10;writing-mode:lr-tb;fill:#000000;fill-opacity:1;fill-rule:nonzero;stroke:none"
       transform="matrix(1,0,0,-1,404.581,630.315)"><tspan
         id="tspan88"
         y="0"
         x="0 6.3651052 9.5471592 15.275655 21.64076 25.459425 32.143333 37.394619 42.112907 45.613766 51.342258 56.060547 65.607704 71.176796 77.541908 82.633789">high-performance</tspan></text>
<text
       id="text96"
       style="font-variant:normal;font-weight:normal;font-size:9.96259975px;font-family:CMR10;-inkscape-font-specification:CMR10;writing-mode:lr-tb;fill:#000000;fill-opacity:1;fill-rule:nonzero;stroke:none"
       transform="matrix(1,0,0,-1,495.787,630.315)"><tspan
         id="tspan92"
         y="0"
         x="0 3.9292495 7.8037047 11.706055 16.133434 21.114735 29.416569 32.184177 37.719398 46.018246 51.553467 56.534767 60.409222">streamingdata</tspan><tspan
         id="tspan94"
         y="11.955"
         x="-442.987 -438.00571 -432.47049 -426.93527 -424.16766 -421.40002 -416.97266 -411.99136 -408.11691 -405.3493 -400.36798 -394.83276 -388.74762 -385.98001 -380.44479 -376.0174 -372.11505 -367.68768 -362.70639 -358.77713 -356.00952 -350.4743 -342.17545 -336.64023 -331.65894 -327.78448 -319.47568 -315.6012 -310.06598 -306.16364 -301.18234 -295.64713 -290.66583 -285.13058 -279.59537 -274.06015 -266.86816 -261.61188 -253.03609 -248.05478 -243.07349 -231.44414 -226.46284 -220.92761">application,increasingdatathroughputby35%and</tspan></text>
<text
       id="text100"
       style="font-variant:normal;font-weight:normal;font-size:9.96259975px;font-family:CMBX10;-inkscape-font-specification:CMBX10;writing-mode:lr-tb;fill:#000000;fill-opacity:1;fill-rule:nonzero;stroke:none"
       transform="matrix(1,0,0,-1,283.712,618.36)"><tspan
         id="tspan98"
         y="0"
         x="0 4.7182875 9.969574 13.151628 16.333683 21.902777 28.267881 31.449936 34.631989 37.814045 41.950516">reliability</tspan></text>
<text
       id="text104"
       style="font-variant:normal;font-weight:normal;font-size:9.96259975px;font-family:CMR10;-inkscape-font-specification:CMR10;writing-mode:lr-tb;fill:#000000;fill-opacity:1;fill-rule:nonzero;stroke:none"
       transform="matrix(1,0,0,-1,335.192,618.36)"><tspan
         id="tspan102"
         y="0"
         x="0 5.2562675 13.842036 18.823336 23.804636 32.106472">by25%.</tspan></text>
<text
       id="text108"
       style="font-variant:normal;font-weight:normal;font-size:5.9776001px;font-family:CMSY6;-inkscape-font-specification:CMSY6;writing-mode:lr-tb;fill:#000000;fill-opacity:1;fill-rule:nonzero;stroke:none"
       transform="matrix(1,0,0,-1,43.526,606.676)"><tspan
         id="tspan106"
         y="0"
         x="0">•</tspan></text>
<text
       id="text112"
       style="font-variant:normal;font-weight:normal;font-size:9.96259975px;font-family:CMR10;-inkscape-font-specification:CMR10;writing-mode:lr-tb;fill:#000000;fill-opacity:1;fill-rule:nonzero;stroke:none"
       transform="matrix(1,0,0,-1,52.8,605.611)"><tspan
         id="tspan110"
         y="0"
         x="0 7.1949897 12.17629 14.9439 17.71151 22.69281 28.506983 33.488285 37.390633 42.371933 46.246387 50.673767 59.526535 66.721527 69.489136 73.363586 82.216354 86.643738 90.546089 95.52739 99.456635 103.38589 106.70642 109.75099 115.28621 120.82143 125.24881 129.12326 131.89087 136.87218 142.40739 147.3887 153.48381 157.35828 161.78564 166.76695 175.06879 182.31558 186.19003 194.48888 197.25648 205.55832 211.09355 213.86116 218.28854 226.59038 231.01775 236.28398 243.47598 247.40523 251.83261 256.8139 259.58151 264.56284 270.09805 272.86566">Collaboratedwithcross-functionalteamstoimplementscalable</tspan></text>
<text
       id="text116"
       style="font-variant:normal;font-weight:normal;font-size:9.96259975px;font-family:CMBX10;-inkscape-font-specification:CMBX10;writing-mode:lr-tb;fill:#000000;fill-opacity:1;fill-rule:nonzero;stroke:none"
       transform="matrix(1,0,0,-1,333.414,605.611)"><tspan
         id="tspan114"
         y="0"
         x="0 8.6614847 16.493084 20.837774">APIs</tspan></text>
<text
       id="text120"
       style="font-variant:normal;font-weight:normal;font-size:9.96259975px;font-family:CMR10;-inkscape-font-specification:CMR10;writing-mode:lr-tb;fill:#000000;fill-opacity:1;fill-rule:nonzero;stroke:none"
       transform="matrix(1,0,0,-1,362.093,605.611)"><tspan
         id="tspan118"
         y="0"
         x="0 5.5352206 9.4644699 12.23208 17.767302">using</tspan></text>
<text
       id="text124"
       style="font-variant:normal;font-weight:normal;font-size:9.96259975px;font-family:CMBX10;-inkscape-font-specification:CMBX10;writing-mode:lr-tb;fill:#000000;fill-opacity:1;fill-rule:nonzero;stroke:none"
       transform="matrix(1,0,0,-1,388.3,605.611)"><tspan
         id="tspan122"
         y="0"
         x="0 6.3651052 12.73021 17.448498 20.630552 26.995657 36.539829 44.690231 50.73753 56.466022 64.746941 70.316032 76.681137 86.861916 95.468605 101.83371 107.40281 112.12109 118.1674 124.5325">SpringBootandQuarkus</tspan></text>
<text
       id="text130"
       style="font-variant:normal;font-weight:normal;font-size:9.96259975px;font-family:CMR10;-inkscape-font-specification:CMR10;writing-mode:lr-tb;fill:#000000;fill-opacity:1;fill-rule:nonzero;stroke:none"
       transform="matrix(1,0,0,-1,520.672,605.611)"><tspan
         id="tspan126"
         y="0"
         x="0 3.0445704 6.9469209 11.928221 20.230055 24.657434 31.573471 36.554771 40.457123 45.715382 49.64463">frameworks,</tspan><tspan
         id="tspan128"
         y="11.955"
         x="-467.87201 -463.44461 -457.90939 -452.37418 -447.39288 -441.85767 -437.43027 -434.66266 -429.12744 -420.82861 -416.95416 -411.41891 -403.66403 -399.7348 -394.47653 -390.54727 -386.67282 -382.24545 -373.9436 -371.17599 -363.9292 -358.94791 -353.41269 -350.64508 -347.87747 -345.10986 -341.51434 -332.93854 -329.06409 -320.75528 -315.22006 -310.23877 -304.70355 -299.16833 -296.4007 -288.65579 -283.6745 -278.69318 -267.07379 -258.77197 -253.79066 -249.88832 -242.13344 -237.70605 -232.72475 -227.18953 -222.76215 -217.22693 -213.32458 -209.42223 -204.99486 -199.73859 -192.54659 -187.01137 -183.08211 -178.65474 -174.75238 -167.49562 -162.51433 -156.97911 -148.12634 -144.22398 -139.79662 -134.26138 -128.72617 -124.29879 -121.53117 -115.99596 -107.69711 -103.76786 -99.340485 -95.438133 -90.458824 -86.021484 -78.801582 -74.899239 -70.471855 -66.54261 -60.728432 -55.747135 -50.211914 -46.282661 -38.537739 -34.663284 -31.895672 -23.593838 -19.166458 -11.919663 -6.6534328 1.9223731 6.9036732 11.884974 20.186808">enhancingthesystem’sabilitytohandle50%moreconcurrentusersandreducingserverresponsetimesby20%.</tspan></text>
<text
       id="text134"
       style="font-variant:normal;font-weight:normal;font-size:5.9776001px;font-family:CMSY6;-inkscape-font-specification:CMSY6;writing-mode:lr-tb;fill:#000000;fill-opacity:1;fill-rule:nonzero;stroke:none"
       transform="matrix(1,0,0,-1,43.526,581.972)"><tspan
         id="tspan132"
         y="0"
         x="0">•</tspan></text>
<text
       id="text138"
       style="font-variant:normal;font-weight:normal;font-size:9.96259975px;font-family:CMR10;-inkscape-font-specification:CMR10;writing-mode:lr-tb;fill:#000000;fill-opacity:1;fill-rule:nonzero;stroke:none"
       transform="matrix(1,0,0,-1,52.8,580.907)"><tspan
         id="tspan136"
         y="0"
         x="0 7.6104302 12.037809 14.80542 17.57303 22.552338 26.979717 30.882067 35.309448 44.172176 52.471024 58.006241 60.773853 65.75515 71.290375 74.610909 79.313255 84.013611 88.994911 91.76252 94.530128 99.511429 105.04665 107.81426 110.58187 113.34948 116.95495 125.53075 129.46001 134.4413 137.20891 142.74413 146.61859 149.3862 154.36749 163.22026 166.26483 171.24614 178.46603 184.00125 188.98256 192.85701 201.16582 206.42407 209.19168 213.12094 218.65616 223.63745 226.40506 229.17268 233.60005 238.58136 242.45581 245.22342 250.20473 259.0575 264.59271 268.52197 271.28958 276.8248">Deliveredahigh-availabilitysolutionfordatavisualizationusing</tspan></text>
<text
       id="text142"
       style="font-variant:normal;font-weight:normal;font-size:9.96259975px;font-family:CMBX10;-inkscape-font-specification:CMBX10;writing-mode:lr-tb;fill:#000000;fill-opacity:1;fill-rule:nonzero;stroke:none"
       transform="matrix(1,0,0,-1,338.064,580.907)"><tspan
         id="tspan140"
         y="0"
         x="0 7.2089372 10.390992 15.960085 20.47912 26.525423 33.523151 42.115894 47.36718 52.936275 58.02816 62.493397 69.491127 77.003922 82.732422 87.251457 91.706726 97.435226 102.15351 107.4048 113.76991 122.37659 129.26773 136.26546 141.83455 148.19965 158.3904 167.17641 173.22371 177.9968 183.72429 188.97557 193.69386">Flask,React,PostgreSQL,andDocker,</tspan></text>
<text
       id="text148"
       style="font-variant:normal;font-weight:normal;font-size:9.96259975px;font-family:CMR10;-inkscape-font-specification:CMR10;writing-mode:lr-tb;fill:#000000;fill-opacity:1;fill-rule:nonzero;stroke:none"
       transform="matrix(1,0,0,-1,538.259,580.907)"><tspan
         id="tspan144"
         y="0"
         x="0 3.9023504 8.32973 13.86495 19.400171 23.827551 26.595161 32.130383">reducing</tspan><tspan
         id="tspan146"
         y="11.955"
         x="-485.45901 -480.47769 -474.94247 -469.96118 -467.19357 -461.9353 -458.00607 -455.23846 -447.99167 -444.11719 -441.34958 -433.04776 -425.29288 -420.03659 -411.46078 -406.47949 -401.4982 -389.86884 -386.82428 -381.84299 -374.62308 -369.92075 -364.94144 -360.51404 -353.28418 -348.30289 -343.32159 -338.3403 -335.57269 -330.59137 -325.61008 -317.31122 -311.776 -307.84677 -303.41937 -299.51703 -295.5878">analysistimeby50%forover100,000users.</tspan></text>
<text
       id="text152"
       style="font-variant:normal;font-weight:normal;font-size:5.9776001px;font-family:CMSY6;-inkscape-font-specification:CMSY6;writing-mode:lr-tb;fill:#000000;fill-opacity:1;fill-rule:nonzero;stroke:none"
       transform="matrix(1,0,0,-1,43.526,557.268)"><tspan
         id="tspan150"
         y="0"
         x="0">•</tspan></text>
<text
       id="text156"
       style="font-variant:normal;font-weight:normal;font-size:9.96259975px;font-family:CMR10;-inkscape-font-specification:CMR10;writing-mode:lr-tb;fill:#000000;fill-opacity:1;fill-rule:nonzero;stroke:none"
       transform="matrix(1,0,0,-1,52.8,556.203)"><tspan
         id="tspan154"
         y="0"
         x="0 6.7805457 12.315766 17.297066 22.278366 27.259666 31.687046 40.53981 47.734802 50.502411 54.376865 63.239597 67.168846 71.043297 76.024597 81.003906 85.43129 90.966507 95.947807 98.715416 104.25064 108.67802 112.58037 119.82716 123.70162 132.00046 136.98177 142.51698 146.39143 149.15906 157.46089 160.2285 164.65587 172.41077 177.94598 182.92728 186.80174 191.78304 197.31825 202.29956 206.22881 213.97374 219.7879 224.21529 228.11763 231.1622 236.14351 240.04585 248.34769 253.32899 258.86423 263.2916 271.03653 276.01782 281.55304 290.41577 293.1734 301.4852 307.01047 310.91281 315.62512 320.60443">Engagedwithstakeholderstooptimizedatabaseperformanceandimprove</tspan></text>
<text
       id="text160"
       style="font-variant:normal;font-weight:normal;font-size:9.96259975px;font-family:CMBX10;-inkscape-font-specification:CMBX10;writing-mode:lr-tb;fill:#000000;fill-opacity:1;fill-rule:nonzero;stroke:none"
       transform="matrix(1,0,0,-1,381.152,556.203)"><tspan
         id="tspan158"
         y="0"
         x="0 6.3651052 11.934198 16.389473 25.774242 32.139347 35.321404 42.00531 47.256596 50.438652 53.620705 59.985809">datapipeline</tspan></text>
<text
       id="text166"
       style="font-variant:normal;font-weight:normal;font-size:9.96259975px;font-family:CMR10;-inkscape-font-specification:CMR10;writing-mode:lr-tb;fill:#000000;fill-opacity:1;fill-rule:nonzero;stroke:none"
       transform="matrix(1,0,0,-1,449.714,556.203)"><tspan
         id="tspan162"
         y="0"
         x="0 3.9023504 8.32973 11.097341 13.86495 18.846251 24.381472 27.149082 29.916691 32.684303 36.279804 40.71117 46.796326 51.223705 56.758926 60.633381 64.507835 67.275444 72.810669 81.109512 86.090813 91.904984 96.332367 100.23472 105.21601 109.09047 111.85808 116.83938 122.3746 127.3559">reliability,cuttingoperational</tspan><tspan
         id="tspan164"
         y="11.955"
         x="-396.914 -391.37878 -386.95139 -384.18378 -379.48145 -374.22318 -366.96643 -361.71014 -353.13434 -348.15305 -343.17175 -334.8699">delaysby40%.</tspan></text>
<text
       id="text170"
       style="font-variant:normal;font-weight:normal;font-size:11.9552002px;font-family:CMBX12;-inkscape-font-specification:CMBX12;writing-mode:lr-tb;fill:#000000;fill-opacity:1;fill-rule:nonzero;stroke:none"
       transform="matrix(1,0,0,-1,28.8,530.273)"><tspan
         id="tspan168"
         y="0"
         x="0 5.0092287 12.110618 17.341017 23.477621 28.971037 36.443035 41.747559 49.219559 52.955559">Internship</tspan></text>
<g
       transform="translate(28.8,525.889)"
       id="g172"><path
         id="path174"
         style="fill:none;stroke:#000000;stroke-width:0.398;stroke-linecap:butt;stroke-linejoin:miter;stroke-miterlimit:10;stroke-dasharray:none;stroke-opacity:1"
         d="M 0,0 H 553.68" /></g><text
       id="text178"
       style="font-variant:normal;font-weight:normal;font-size:9.96259975px;font-family:CMBX10;-inkscape-font-specification:CMBX10;writing-mode:lr-tb;fill:#000000;fill-opacity:1;fill-rule:nonzero;stroke:none"
       transform="matrix(1,0,0,-1,28.8,513.492)"><tspan
         id="tspan176"
         y="0"
         x="0 8.5927429 13.844029 18.363064 23.614351 29.183445 33.901733 38.674812 48.855595 57.130531 62.381817 68.428116 72.883392 78.134682 86.678604 91.023293 100.57046 106.13955 110.85783 116.42693 446.81863 452.74039 458.30948 468.49026 474.21875 479.94727 485.67575 495.22989 504.77405 515.65021 520.90051 530.76251 536.49097 542.21948 547.948">ResearchCenterImaratJan2022–May2022</tspan></text>
<text
       id="text182"
       style="font-variant:normal;font-weight:normal;font-size:9.96259975px;font-family:CMTI10;-inkscape-font-specification:CMTI10;writing-mode:lr-tb;fill:#000000;fill-opacity:1;fill-rule:nonzero;stroke:none"
       transform="matrix(1,0,0,-1,28.8,501.537)"><tspan
         id="tspan180"
         y="0"
         x="0 5.6009736 10.692859 13.748388 17.057964 23.677114 28.768999 32.462135 40.611542 47.369175 52.970146 57.552944 60.608475 66.20945 70.284149 74.866943 82.624825 86.4664 92.067375 95.376953 99.959747 104.16097 530.23401 534.07556 539.67657 544.76843 547.82397">SoftwareEngineerInternIndia</tspan></text>
<text
       id="text186"
       style="font-variant:normal;font-weight:normal;font-size:5.9776001px;font-family:CMSY6;-inkscape-font-specification:CMSY6;writing-mode:lr-tb;fill:#000000;fill-opacity:1;fill-rule:nonzero;stroke:none"
       transform="matrix(1,0,0,-1,43.526,491.802)"><tspan
         id="tspan184"
         y="0"
         x="0">•</tspan></text>
<text
       id="text190"
       style="font-variant:normal;font-weight:normal;font-size:9.96259975px;font-family:CMR10;-inkscape-font-specification:CMR10;writing-mode:lr-tb;fill:#000000;fill-opacity:1;fill-rule:nonzero;stroke:none"
       transform="matrix(1,0,0,-1,52.8,490.736)"><tspan
         id="tspan188"
         y="0"
         x="0 3.5974948 9.1327152 11.900326 15.774781 18.542391 23.523691 27.398146 31.825525 40.678291 46.213512 50.640892 55.620201 60.047581 62.815189 67.796486 73.331711 81.633545 86.060921 91.327156 98.519157 103.50046 109.86257">Initiateddevelopmentofa</tspan></text>
<text
       id="text194"
       style="font-variant:normal;font-weight:normal;font-size:9.96259975px;font-family:CMBX10;-inkscape-font-specification:CMBX10;writing-mode:lr-tb;fill:#000000;fill-opacity:1;fill-rule:nonzero;stroke:none"
       transform="matrix(1,0,0,-1,170.968,490.736)"><tspan
         id="tspan192"
         y="0"
         x="0 11.844535 15.026589 21.391695 27.7568 33.166492 41.441425 49.776138 56.141243 61.392529 66.110817 71.838318 77.0896">WindowsServer</tspan></text>
<text
       id="text198"
       style="font-variant:normal;font-weight:normal;font-size:9.96259975px;font-family:CMR10;-inkscape-font-specification:CMR10;writing-mode:lr-tb;fill:#000000;fill-opacity:1;fill-rule:nonzero;stroke:none"
       transform="matrix(1,0,0,-1,256.101,490.736)"><tspan
         id="tspan196"
         y="0"
         x="0 4.9812999 10.516521 19.369287 26.564276 29.331886 32.099499 36.526878 41.783146 48.985107 53.966408 59.501629 65.03685 67.804459 70.572067 74.999451 79.980751 83.855202 86.622818 91.604111 100.45688 103.22449 107.65187 112.63118 117.05856 120.96091 125.94221 130.92351 133.69112 139.22633">andClientapplicationleveraging</tspan></text>
<text
       id="text202"
       style="font-variant:normal;font-weight:normal;font-size:9.96259975px;font-family:CMBX10;-inkscape-font-specification:CMBX10;writing-mode:lr-tb;fill:#000000;fill-opacity:1;fill-rule:nonzero;stroke:none"
       transform="matrix(1,0,0,-1,403.77,490.736)"><tspan
         id="tspan200"
         y="0"
         x="0 7.8315997 13.877902 18.333176 24.698282 30.426777">Python</tspan></text>
<text
       id="text206"
       style="font-variant:normal;font-weight:normal;font-size:9.96259975px;font-family:CMR10;-inkscape-font-specification:CMR10;writing-mode:lr-tb;fill:#000000;fill-opacity:1;fill-rule:nonzero;stroke:none"
       transform="matrix(1,0,0,-1,443.883,490.736)"><tspan
         id="tspan204"
         y="0"
         x="0 4.9812999 10.516521">and</tspan></text>
<text
       id="text210"
       style="font-variant:normal;font-weight:normal;font-size:9.96259975px;font-family:CMBX10;-inkscape-font-specification:CMBX10;writing-mode:lr-tb;fill:#000000;fill-opacity:1;fill-rule:nonzero;stroke:none"
       transform="matrix(1,0,0,-1,463.255,490.736)"><tspan
         id="tspan208"
         y="0"
         x="0 6.3651052 12.412403 17.185486 22.912983 28.16427 36.435223 44.266819 48.985107 54.713604 60.442097 65.160385 70.729477 80.276642 89.833763 93.015816 99.38092">SocketProgramming</tspan></text>
<text
       id="text218"
       style="font-variant:normal;font-weight:normal;font-size:9.96259975px;font-family:CMR10;-inkscape-font-specification:CMR10;writing-mode:lr-tb;fill:#000000;fill-opacity:1;fill-rule:nonzero;stroke:none"
       transform="matrix(1,0,0,-1,568.36,490.736)"><tspan
         id="tspan212"
         y="0"
         x="0">,</tspan><tspan
         id="tspan214"
         y="11.955"
         x="-515.56 -512.79242 -507.25717 -502.8298 -498.92743 -494.50006 -489.51877 -485.58951 -482.8219 -477.28668 -468.98782 -463.45261 -458.47131 -454.59686 -446.28806 -440.75284 -436.85046 -431.60019 -427.17282 -422.74542 -418.81619 -414.88693 -412.11932 -406.58411 -398.2753 -393.8479 -385.54608 -381.11868 -378.35107 -373.92371 -368.38849 -363.96112 -355.38531 -350.12903 -341.54327 -336.56195 -331.58066 -319.96127 -314.97998 -309.44476 -300.59201 -295.05676 -290.62939 -286.20203 -282.29968 -277.87228 -272.89099 -268.96173 -266.19412 -260.65891 -252.3501 -246.81488 -242.91254 -237.66225 -233.23486 -228.79752 -224.86827 -220.93903 -218.1714 -212.63618 -204.33734 -200.46289 -197.69528 -189.39345 -181.64851 -178.60394 -174.7016 -169.72029 -158.09096 -149.79211 -145.91765 -137.6188 -129.31 -123.77478 -118.79348 -113.25826 -109.36587 -105.42666 -99.341499 -93.527328 -88.277039 -83.295738 -79.366486 -75.492035 -72.724426 -67.189201 -58.880394 -54.951145 -49.692883 -45.763634 -41.889179 -37.4618 -25.842419 -20.307199 -14.771978 -10.897523 -8.1299133 0.17192169">increasingdataprocessingefciencyby25%anddecreasingprocessingtimefrom4to3hours,boostingsystemuptime</tspan><tspan
         id="tspan216"
         y="23.91"
         x="-515.56 -510.30374 -501.72794 -496.74661 -491.76532 -483.45352">by15%.</tspan></text>
<text
       id="text222"
       style="font-variant:normal;font-weight:normal;font-size:5.9776001px;font-family:CMSY6;-inkscape-font-specification:CMSY6;writing-mode:lr-tb;fill:#000000;fill-opacity:1;fill-rule:nonzero;stroke:none"
       transform="matrix(1,0,0,-1,43.526,455.142)"><tspan
         id="tspan220"
         y="0"
         x="0">•</tspan></text>
<text
       id="text228"
       style="font-variant:normal;font-weight:normal;font-size:9.96259975px;font-family:CMR10;-inkscape-font-specification:CMR10;writing-mode:lr-tb;fill:#000000;fill-opacity:1;fill-rule:nonzero;stroke:none"
       transform="matrix(1,0,0,-1,52.8,454.077)"><tspan
         id="tspan224"
         y="0"
         x="0 5.6766896 11.21191 16.747131 21.174511 25.048965 27.816576 32.797874 38.333096 42.760475 51.503654 54.271263 63.024403 71.223625 75.098076 79.525459 84.50676 96.026512 101.00781 107.26034 110.02795 115.28422 119.15868 123.58605 127.4884 133.02362 140.17079 145.1521 150.68732 159.44046 162.20807 170.5099 176.04512 179.94746 184.64981 189.62912 194.0565 202.80965 206.73889 211.99715 215.92641 219.80086 224.22824 235.74799 239.65034 244.07773 248.00697 253.82115 258.80246 264.33768 268.26691 275.90225 279.7767 282.54431 290.84616 298.49146 301.53601 305.43839 310.41968 321.93942 326.92072 335.11993 338.99442 347.18365 355.38287 359.31213 363.7395 368.1669 373.14819 378.68341 384.21863 391.36578 396.34711 401.88232 410.63547 416.17068 420.09991 424.52731 431.6376 435.57681 440.55814 444.43259 447.2002 451.12946 454.17401 459.1553 463.5827 467.45715 470.22476 475.20605 483.94925 489.20551 497.68167 502.66299 507.64429 519.16406 524.42029">Functionedinateamofinternsandimprovedsystemresponsetimefrom10to2secondsandusersatisfactionby30%by</tspan><tspan
         id="tspan226"
         y="11.955"
         x="0 4.4273796 9.9625998 15.497821 20.47912 26.014341 30.441721 33.209332 38.744553 47.043396 52.578617 57.559917 61.434372 69.743179 74.991478 77.759087 81.698303 87.223557 92.204857 94.972473 97.740082 102.16746 107.14876 111.02322 113.79082 118.77213 127.63486 134.82985 137.59746 141.47191 150.32468 157.10522 159.87283 164.85413 168.72859 171.4962 175.92757 182.01271 184.78033 189.2077 194.18901 199.72423 202.49184 208.02705 216.3259 220.20036 228.50917 236.80801 241.78931 246.77061 258.38998 261.15759 269.45944 274.99466 278.897 283.59937 288.58862 293.01599 301.31784 305.74521 311.0015 318.19348 320.96109 329.82382 335.34909 340.33038 344.20483 352.51364 355.28125 360.53754 364.41199 368.83936 372.7417 378.27695 382.17929 386.60666 390.48111 395.46243 399.33688 402.10449 407.08578 415.93854 420.91986 425.34723 429.7746 435.30981 439.21219 444.19348 448.62085 453.05222">enhancingdatavisualizationwithPlotly,leadingtoa20%improvementindatainterpretationaccuracy.</tspan></text>
<text
       id="text232"
       style="font-variant:normal;font-weight:normal;font-size:11.9552002px;font-family:CMBX12;-inkscape-font-specification:CMBX12;writing-mode:lr-tb;fill:#000000;fill-opacity:1;fill-rule:nonzero;stroke:none"
       transform="matrix(1,0,0,-1,28.8,428.147)"><tspan
         id="tspan230"
         y="0"
         x="0 9.1875715 14.680985 22.147009 26.267965 32.404568 38.382168 43.612568">Projects</tspan></text>
<g
       transform="translate(28.8,423.763)"
       id="g234"><path
         id="path236"
         style="fill:none;stroke:#000000;stroke-width:0.398;stroke-linecap:butt;stroke-linejoin:miter;stroke-miterlimit:10;stroke-dasharray:none;stroke-opacity:1"
         d="M 0,0 H 553.68" /></g><text
       id="text240"
       style="font-variant:normal;font-weight:normal;font-size:9.96259975px;font-family:CMBX10;-inkscape-font-specification:CMBX10;writing-mode:lr-tb;fill:#000000;fill-opacity:1;fill-rule:nonzero;stroke:none"
       transform="matrix(1,0,0,-1,28.8,410.868)"><tspan
         id="tspan238"
         y="0"
         x="0 5.9217696 11.650265 18.015369 28.891541 34.460632 38.915909 43.688992 53.86977 62.531254 68.896362 73.351639 79.080132 88.627289 94.196381 98.661621 104.39011">JobMatchAutomator</tspan></text>
<text
       id="text244"
       style="font-variant:normal;font-weight:normal;font-size:9.96259975px;font-family:CMSY10;-inkscape-font-specification:CMSY10;writing-mode:lr-tb;fill:#000000;fill-opacity:1;fill-rule:nonzero;stroke:none"
       transform="matrix(1,0,0,-1,141.225,410.868)"><tspan
         id="tspan242"
         y="0"
         x="0">|</tspan></text>
<text
       id="text248"
       style="font-variant:normal;font-weight:normal;font-size:9.96259975px;font-family:CMTI10;-inkscape-font-specification:CMTI10;writing-mode:lr-tb;fill:#000000;fill-opacity:1;fill-rule:nonzero;stroke:none"
       transform="matrix(1,0,0,-1,147.313,410.868)"><tspan
         id="tspan246"
         y="0"
         x="0 6.7576318 11.59547 14.905046 19.996931 25.088816 30.689789 37.311928 42.912903 47.495701 50.042141 54.624935 60.22591 63.281441 68.628365 76.77578 83.387955 91.095024 95.678818 100.26261 104.84541 107.39185 115.54125 122.67049 125.21693 130.30882 135.65575 144.31424 151.44348 156.53535 162.13634 166.21004 171.30193 173.84837">Python,Selenium,GoogleCloudConsole</tspan></text>
<text
       id="text252"
       style="font-variant:normal;font-weight:normal;font-size:9.96259975px;font-family:CMBX10;-inkscape-font-specification:CMBX10;writing-mode:lr-tb;fill:#000000;fill-opacity:1;fill-rule:nonzero;stroke:none"
       transform="matrix(1,0,0,-1,475.379,410.868)"><tspan
         id="tspan250"
         y="0"
         x="0 10.87617 16.126461 25.988438 31.716934 37.445427 43.173923 52.728058 62.272228 68.194 74.559105 84.739883 90.468376 96.196877 101.92537">May2024–Jun2024</tspan></text>
<text
       id="text256"
       style="font-variant:normal;font-weight:normal;font-size:5.9776001px;font-family:CMSY6;-inkscape-font-specification:CMSY6;writing-mode:lr-tb;fill:#000000;fill-opacity:1;fill-rule:nonzero;stroke:none"
       transform="matrix(1,0,0,-1,43.526,400.579)"><tspan
         id="tspan254"
         y="0"
         x="0">•</tspan></text>
<text
       id="text262"
       style="font-variant:normal;font-weight:normal;font-size:9.96259975px;font-family:CMR10;-inkscape-font-specification:CMR10;writing-mode:lr-tb;fill:#000000;fill-opacity:1;fill-rule:nonzero;stroke:none"
       transform="matrix(1,0,0,-1,52.8,399.514)"><tspan
         id="tspan258"
         y="0"
         x="0 7.6104302 12.037809 15.967059 18.734669 23.715969 29.25119 33.67857 42.531334 47.512634 53.047855 61.910583 67.445808 71.873184 77.408409 80.176018 84.878365 89.857674 94.285049 103.13782 111.44662 119.74846 122.51607 126.94345 130.84579 135.8271 139.75635 144.18373 148.08607 153.34435 156.11195 160.53932 164.96671 168.89595 172.21649 177.75171 182.73302 186.66226 191.08965 199.94241 203.87166 209.12991 213.05917 216.93362 221.36101 232.99034 236.86481 245.16365 249.59102 254.57233 257.33994 260.10754 264.53491 268.96231 276.1543 279.19888 284.18018 293.04291 298.57812 303.55942 307.43387 315.73273 318.77728 322.67966 327.66095 339.28033 344.26163 355.33804 363.63989 369.16913 372.21368 377.19501 384.41489 387.45947 392.44077 401.3035 407.1077 412.08899 417.07031 420.97266 426.50787 430.43713 436.53223 441.51355 447.04877 450.92322 455.90451 464.20636 469.18765 473.0621 475.82971 481.36493 489.66379 493.53824 499.07346">Designedanddeployedamicroservices-basedsystemtocollectjobdatafrom5+majorjobboards,automatingthe</tspan><tspan
         id="tspan260"
         y="11.955"
         x="0 5.5352206 9.4375706 14.697824 19.125204 23.552582 27.481833 34.728626 41.923618 44.691227 48.565681 57.418449 61.855789 65.748177 70.729477 79.592209 82.63678 87.61808 93.153297 100.40009 105.38139 110.91662 119.76938 125.3046 133.05351 139.28014 142.04774 145.9222 153.67709 156.72166 161.70296 168.92285 173.35023 181.65207 186.07945 188.84706 193.27444 198.80966 203.23705 207.66841">processwithcronjobsandSQLiteforefciency.</tspan></text>
<text
       id="text266"
       style="font-variant:normal;font-weight:normal;font-size:5.9776001px;font-family:CMSY6;-inkscape-font-specification:CMSY6;writing-mode:lr-tb;fill:#000000;fill-opacity:1;fill-rule:nonzero;stroke:none"
       transform="matrix(1,0,0,-1,43.526,375.875)"><tspan
         id="tspan264"
         y="0"
         x="0">•</tspan></text>
<text
       id="text272"
       style="font-variant:normal;font-weight:normal;font-size:9.96259975px;font-family:CMR10;-inkscape-font-specification:CMR10;writing-mode:lr-tb;fill:#000000;fill-opacity:1;fill-rule:nonzero;stroke:none"
       transform="matrix(1,0,0,-1,52.8,374.81)"><tspan
         id="tspan268"
         y="0"
         x="0 7.4719501 11.620377 17.155598 19.923208 24.350588 29.329895 33.757275 42.620003 47.601303 52.582603 64.201981 67.246552 72.227852 81.08062 89.382454 94.363754 98.238213 102.3966 107.93182 110.69943 116.23465 124.53349 129.5148 133.94217 138.36955 143.90477 147.80713 152.78842 157.21581 165.79161 171.04788 179.63365 182.40126 186.82864 191.80795 196.23532 200.13768 205.11897 210.10028 212.86789 218.40311 226.70195 229.74652 234.1739 239.1552 243.02966 248.56488 252.46722 260.22211 264.64951 270.18472 275.16602 277.93362 283.46884 287.89624 292.32361 296.22595 298.99356 304.52878 312.82764 317.80893 323.34415 332.19693 334.96454 340.22079 344.09525 348.52264 353.50394 357.40628 362.38757 366.26202 369.02966 374.56488 382.87369 388.40891 393.3902 397.26465 405.56351 411.09872 413.86633 419.68051 424.10788 426.87549 429.6431 435.17831 439.60571 446.85251 449.62012 454.87637 458.75082 467.04968 473.27631 476.04391 481.02521 489.33701 494.3183 502.61716 507.59845 513.13367 521.98645">Achieved85%jobmatchingaccuracybyleveragingfeatureengineeringandintegratingdatapipelinesintoLlama3anda</tspan><tspan
         id="tspan270"
         y="11.955"
         x="0 2.7676103 8.0278635 12.455242 17.436543 23.521698 31.339352 38.119896 48.632431 56.934265 62.194519 67.729736 72.15712 74.924728 81.019852 84.922195 89.349579 94.884796 100.41006 104.8474 107.61501 113.14027 121.44907 126.43037 132.24455 136.67192 140.57428 145.55557 149.43004 152.19765 157.17894 162.70421 167.6855 173.78062 178.20799 183.1893 187.11855 190.99301 198.23981 203.49606 212.08183 217.06314 222.04443 230.34627">localGPTmodel,reducingoperationalcostsby20%.</tspan></text>
<text
       id="text276"
       style="font-variant:normal;font-weight:normal;font-size:5.9776001px;font-family:CMSY6;-inkscape-font-specification:CMSY6;writing-mode:lr-tb;fill:#000000;fill-opacity:1;fill-rule:nonzero;stroke:none"
       transform="matrix(1,0,0,-1,43.526,351.171)"><tspan
         id="tspan274"
         y="0"
         x="0">•</tspan></text>
<text
       id="text282"
       style="font-variant:normal;font-weight:normal;font-size:9.96259975px;font-family:CMR10;-inkscape-font-specification:CMR10;writing-mode:lr-tb;fill:#000000;fill-opacity:1;fill-rule:nonzero;stroke:none"
       transform="matrix(1,0,0,-1,52.8,350.106)"><tspan
         id="tspan278"
         y="0"
         x="0 7.4719501 13.007171 16.881626 21.862926 30.164761 35.146061 39.020515 43.447895 52.300663 55.34523 60.32653 69.189262 74.993469 79.97477 83.904022 87.778473 90.546089 96.081306 101.06261 108.31937 112.19382 120.49267 128.10309 130.87071 134.79996 139.22734 144.20863 148.11099 156.96375 162.22202 164.98962 173.29843 180.21446 184.64185 190.17706 195.7123 200.97253 205.95384 211.2121 215.14136 221.2265 226.20781 230.63519 235.06256 239.48994 242.25755 246.68494 250.58728 255.56859 259.44305 262.21066 267.74588 276.04471 279.91916 285.45441 293.20929 296.25385 301.23514 310.08792 315.06921 320.60443 326.13965 328.90726 331.67487 336.10226 341.08356 344.95801 347.72562 352.70691 361.55969 367.09491 370.99725 376.25751 380.68491 385.11227 389.04153 396.28833 401.55453 410.13034 415.11166 420.09296 431.71234 436.69363 442.22885 451.08163 455.51895 461.04422 466.57944 471.56073 477.09598 481.52335 484.29095 489.82617">AutomatedjobpostingstoDiscordviawebhooks,acceleratingthejobapplicationprocessby80%andenhancing</tspan><tspan
         id="tspan280"
         y="11.955"
         x="0 3.9292495 8.3566284 13.337929 16.105539 21.08684 26.622059 29.389669 32.15728 34.924892 38.520393 42.951756">scalability.</tspan></text>
<text
       id="text286"
       style="font-variant:normal;font-weight:normal;font-size:9.96259975px;font-family:CMBX10;-inkscape-font-specification:CMBX10;writing-mode:lr-tb;fill:#000000;fill-opacity:1;fill-rule:nonzero;stroke:none"
       transform="matrix(1,0,0,-1,28.8,325.603)"><tspan
         id="tspan284"
         y="0"
         x="0 7.0136704 11.731957 17.301052 23.666157 26.848211 33.213314 42.767448 51.032421 54.224438 58.679714 68.860497 79.736664">TradingwithML</tspan></text>
<text
       id="text290"
       style="font-variant:normal;font-weight:normal;font-size:9.96259975px;font-family:CMSY10;-inkscape-font-specification:CMSY10;writing-mode:lr-tb;fill:#000000;fill-opacity:1;fill-rule:nonzero;stroke:none"
       transform="matrix(1,0,0,-1,118.747,325.603)"><tspan
         id="tspan288"
         y="0"
         x="0">|</tspan></text>
<text
       id="text294"
       style="font-variant:normal;font-weight:normal;font-size:9.96259975px;font-family:CMTI10;-inkscape-font-specification:CMTI10;writing-mode:lr-tb;fill:#000000;fill-opacity:1;fill-rule:nonzero;stroke:none"
       transform="matrix(1,0,0,-1,124.835,325.603)"><tspan
         id="tspan292"
         y="0"
         x="0 6.7576318 11.59547 14.905046 19.996931 25.088816 30.689789 37.311928 44.324604 49.416489 53.999283 58.582081 61.891655 65.584793 70.676674 75.768562 80.351357 84.552589 91.164764 97.812805 102.90469 107.99657 112.58037 121.2289 126.32079 131.92175 140.58026 147.59293 150.64845 156.24944 161.34132 166.94229 171.017 179.1664 186.57161 193.32924">Python,Backtrader,YahooandBinanceAPI</tspan></text>
<text
       id="text298"
       style="font-variant:normal;font-weight:normal;font-size:9.96259975px;font-family:CMBX10;-inkscape-font-specification:CMBX10;writing-mode:lr-tb;fill:#000000;fill-opacity:1;fill-rule:nonzero;stroke:none"
       transform="matrix(1,0,0,-1,482.422,325.603)"><tspan
         id="tspan296"
         y="0"
         x="0 5.9217696 12.286875 22.467655 28.19615 33.924644 39.653141 49.207275 58.751446 67.358131 73.723244 79.451736 85.180229 88.362282 94.727386">Jun2024–Ongoing</tspan></text>
<text
       id="text302"
       style="font-variant:normal;font-weight:normal;font-size:5.9776001px;font-family:CMSY6;-inkscape-font-specification:CMSY6;writing-mode:lr-tb;fill:#000000;fill-opacity:1;fill-rule:nonzero;stroke:none"
       transform="matrix(1,0,0,-1,43.526,315.314)"><tspan
         id="tspan300"
         y="0"
         x="0">•</tspan></text>
<text
       id="text308"
       style="font-variant:normal;font-weight:normal;font-size:9.96259975px;font-family:CMR10;-inkscape-font-specification:CMR10;writing-mode:lr-tb;fill:#000000;fill-opacity:1;fill-rule:nonzero;stroke:none"
       transform="matrix(1,0,0,-1,52.8,314.248)"><tspan
         id="tspan304"
         y="0"
         x="0 7.0565095 12.59173 15.359341 18.126951 25.318953 33.627762 40.408306 45.666565 49.541019 55.06628 60.047581 65.582802 68.903336 74.438553 79.419853 83.349106 87.786446 96.639214 100.51366 104.41602 109.39732 114.93254 117.70015 123.23537 131.53421 137.06944 139.83705 144.81834 148.69279 151.73737 156.71867 160.62102 172.2404 176.11485 181.65009 186.63138 193.83334 198.26073 203.51898 207.94637 212.37373 217.90897 221.78342 226.2108 235.06357 240.04486 245.02617 253.32501 257.19946 261.10181 266.0831 271.61835 276.04572 279.97498 286.07007 291.05139 295.1998 300.73502 303.50262 307.93002 313.18829 315.9559 321.49112 329.78995 334.77124 339.75256 351.3819 357.1861 362.16742 366.06976 369.94421 372.9888 377.97009 380.7377 383.50531 391.80414 396.78546 400.68781 405.40012 412.59509 416.46954 425.32233 430.57858 439.15439 441.922 446.35934 451.33865 455.76602 459.6684 464.64969 469.63098 472.39859 477.93381 486.23267 494.53448 499.51581 503.66422 509.19943 511.96704 517.50226">BuiltaPython-basedtradingplatformthatexecuted150trades,achieving20%portfoliogrowthbyleveragingmachine</tspan><tspan
         id="tspan306"
         y="11.955"
         x="0 2.7676103 7.1949897 12.17629 16.07864 21.613861 24.381472 29.916691 38.215538 41.260109 46.241409 53.461304 58.442604 63.423904 75.053246 83.35508 88.33638 92.238731 97.21804 101.64542 108.83742 112.71188 116.61423 121.0416 126.57683 135.43956 138.48413 143.46542 147.36778 151.79515 156.22253 161.20383 165.13309 169.00754 171.77515 177.31036 185.60922 190.59052 195.0179 199.44528 204.9805 208.88284 213.86415 218.29152 222.72289">learningfor85%markettrendforecastingaccuracy.</tspan></text>
<text
       id="text312"
       style="font-variant:normal;font-weight:normal;font-size:5.9776001px;font-family:CMSY6;-inkscape-font-specification:CMSY6;writing-mode:lr-tb;fill:#000000;fill-opacity:1;fill-rule:nonzero;stroke:none"
       transform="matrix(1,0,0,-1,43.526,290.61)"><tspan
         id="tspan310"
         y="0"
         x="0">•</tspan></text>
<text
       id="text318"
       style="font-variant:normal;font-weight:normal;font-size:9.96259975px;font-family:CMR10;-inkscape-font-specification:CMR10;writing-mode:lr-tb;fill:#000000;fill-opacity:1;fill-rule:nonzero;stroke:none"
       transform="matrix(1,0,0,-1,52.8,289.544)"><tspan
         id="tspan314"
         y="0"
         x="0 7.3334699 11.760849 17.29607 22.831291 27.258671 31.686049 40.538815 44.441166 48.868546 52.797794 58.611969 63.593269 69.128487 73.057739 80.81263 84.677116 87.444733 95.756523 100.18391 107.4307 111.30515 119.604 127.90584 132.88713 136.78949 141.7688 146.20613 153.39813 157.54657 163.08179 168.06308 173.59831 178.57961 183.00699 190.25378 195.52 204.09581 209.07712 214.05841 225.6778 231.21301 235.14227 237.90988 243.4451 251.75391 255.65625 260.08365 265.06494 267.83255 271.15308 275.02753 277.79514 286.09698 293.84192 299.37714 304.91235 309.89365 315.42886 319.85623 322.62387 327.60516 333.69031 341.16226 347.94281 354.8678 357.63544 362.89169 366.76614 371.19351 376.17484 380.07718 385.05847 388.93292 391.70053 396.68185 405.53461 410.5159 416.05112 424.9039 429.88519 435.42041 439.29486 442.06247 450.36432 453.13193 457.5593 461.98669 470.84943 479.15125 484.40155 489.93677 494.36414">Reducedresponsetimestomarketchangesby30%usingreal-timefnancialAPIintegrationandoptimizedmodel</tspan><tspan
         id="tspan316"
         y="11.955"
         x="0 5.5352206 8.3028307 14.117004 18.544384 21.311995 24.079605 29.614824 34.042206 41.288998 44.333569 49.314869 56.534767 62.069988 64.837601 69.818893 78.681625 83.383972 88.084328 93.065628 95.833237 98.600845 103.58215 109.11737 111.88498 114.65259 117.4202 121.0157 125.44707">pipelinesforhighavailability.</tspan></text>
<text
       id="text322"
       style="font-variant:normal;font-weight:normal;font-size:5.9776001px;font-family:CMSY6;-inkscape-font-specification:CMSY6;writing-mode:lr-tb;fill:#000000;fill-opacity:1;fill-rule:nonzero;stroke:none"
       transform="matrix(1,0,0,-1,43.526,265.906)"><tspan
         id="tspan320"
         y="0"
         x="0">•</tspan></text>
<text
       id="text328"
       style="font-variant:normal;font-weight:normal;font-size:9.96259975px;font-family:CMR10;-inkscape-font-specification:CMR10;writing-mode:lr-tb;fill:#000000;fill-opacity:1;fill-rule:nonzero;stroke:none"
       transform="matrix(1,0,0,-1,52.8,264.84)"><tspan
         id="tspan324"
         y="0"
         x="0 7.4719501 13.007171 18.542391 21.310001 24.077612 28.504992 37.357758 42.339058 47.874279 52.584595 57.565895 63.101116 67.528496 71.955872 80.80864 86.343864 91.325165 95.199615 103.49846 109.03368 112.93604 117.36341 122.89864 126.80099 132.06123 136.48862 140.916 144.84525 148.77449 151.5421 157.07733 165.37617 169.25063 173.67801 177.8364 183.37161 188.90683 191.67445 196.93271 202.45796 206.89531 214.14211 218.01656 226.3154 229.08301 237.38484 242.92007 246.82242 251.52477 256.51404 264.25897 272.56079 277.82104 283.35626 287.78366 293.8688 297.77115 302.19855 304.96616 307.73376 312.71506 318.25027 321.01788 323.78549 326.5531 330.14862 338.73438 343.71567 349.25089 358.10367 363.91785 368.34521 372.24756 375.29214 380.27344 384.16583 392.47763 397.45892 402.98419 407.42151 415.16644 417.93405 426.78683 431.76614 436.74744 439.51505 444.49634 448.37079 451.1384 453.90601 461.66092 469.96274 474.94403 478.84641 483.82571 488.25308">Appliedadvanceddatapreprocessingtechniquestoimprovemodelreliabilityandperformanceinvolatilemarket</tspan><tspan
         id="tspan326"
         y="11.955"
         x="0 4.4273796 9.408679 14.9439 20.47912 23.246731 27.121185 29.888796 34.870098 40.405315 44.334568">conditions.</tspan></text>
<text
       id="text332"
       style="font-variant:normal;font-weight:normal;font-size:11.9552002px;font-family:CMBX12;-inkscape-font-specification:CMBX12;writing-mode:lr-tb;fill:#000000;fill-opacity:1;fill-rule:nonzero;stroke:none"
       transform="matrix(1,0,0,-1,28.8,237.914)"><tspan
         id="tspan330"
         y="0"
         x="0 8.2299595 14.366564 19.973553 27.445553 34.917553 38.653553 44.631153 51.169453 59.388653 66.860649 73.95845 77.69445 81.43045 85.166451">TechnicalSkills</tspan></text>
<g
       transform="translate(28.8,233.53)"
       id="g334"><path
         id="path336"
         style="fill:none;stroke:#000000;stroke-width:0.398;stroke-linecap:butt;stroke-linejoin:miter;stroke-miterlimit:10;stroke-dasharray:none;stroke-opacity:1"
         d="M 0,0 H 553.68" /></g><text
       id="text340"
       style="font-variant:normal;font-weight:normal;font-size:9.96259975px;font-family:CMBX10;-inkscape-font-specification:CMBX10;writing-mode:lr-tb;fill:#000000;fill-opacity:1;fill-rule:nonzero;stroke:none"
       transform="matrix(1,0,0,-1,39.599,220.037)"><tspan
         id="tspan338"
         y="0"
         x="0 7.8315997 13.877902 18.333176 24.698282 30.426777 36.791882 43.789612 49.71138 54.971634 60.380329 65.949425 72.947151 81.222092 86.950584 91.668869 100.73583 106.6576 111.91785 117.32655 122.89565 129.89337 138.1683 145.16605 153.44098 162.35153 171.26207 178.26978 184.63487 190.20396 194.97705 201.02335 204.84201 210.09331 216.4584">Python,Java,CoreJava,C,C++,back-end</tspan></text>
<text
       id="text346"
       style="font-variant:normal;font-weight:normal;font-size:9.96259975px;font-family:CMR10;-inkscape-font-specification:CMR10;writing-mode:lr-tb;fill:#000000;fill-opacity:1;fill-rule:nonzero;stroke:none"
       transform="matrix(1,0,0,-1,262.422,220.037)"><tspan
         id="tspan342"
         y="0"
         x="0 6.085156 11.620377 16.601677 20.476131 28.784941 32.714191 36.588646 40.490993 46.026215 50.453594 54.328049 59.86327 63.765621 68.193001 72.122253 78.207405 82.634789 88.170006 93.705223 97.025764 100.90022 105.88152 109.20205 113.62943 119.16465 124.69987 130.78503 138.25697 145.45197 154.58469 160.81131 165.7926 172.98759 178.52281 184.05804 190.15315 195.27293 199.97528 204.67564 209.65694 215.19215 219.61954 223.5219 226.28951 231.82472 235.69917 241.78433 247.31955 255.06847 261.29507 267.3902 275.20786 279.1102 284.09152 289.62674 295.16196 302.91086 309.13748">,datastructures,end-to-end,HTML/CSS,JavaScript,SQL,GraphQL,</tspan><tspan
         id="tspan344"
         y="11.955"
         x="-222.823 -215.00534 -206.7065 -202.83205 -195.01439 -190.0331 -187.26549 -182.28418 -176.74896 -171.76767 -167.8932 -161.7981 -154.32614 -149.07585 -143.54063 -139.11325 -136.34564 -133.30107 -129.37183 -123.2767 -114.14398 -109.16268 -103.62746 -98.646164 -93.664864 -86.054436 -78.997925 -72.912766 -65.5793 -61.15192 -55.616699 -52.849091 -48.919838">Go(Golang),Node.js,MongoDB,Redis,</tspan></text>
<text
       id="text350"
       style="font-variant:normal;font-weight:normal;font-size:9.96259975px;font-family:CMBX10;-inkscape-font-specification:CMBX10;writing-mode:lr-tb;fill:#000000;fill-opacity:1;fill-rule:nonzero;stroke:none"
       transform="matrix(1,0,0,-1,219.591,208.082)"><tspan
         id="tspan348"
         y="0"
         x="0 8.5927429 16.120483 22.485588 34.271343 42.932827 50.764427 55.109119">RESTAPIs</tspan></text>
<text
       id="text354"
       style="font-variant:normal;font-weight:normal;font-size:9.96259975px;font-family:CMR10;-inkscape-font-specification:CMR10;writing-mode:lr-tb;fill:#000000;fill-opacity:1;fill-rule:nonzero;stroke:none"
       transform="matrix(1,0,0,-1,279.223,208.082)"><tspan
         id="tspan352"
         y="0"
         x="0 6.085156 13.902808 19.163061 24.144361 29.125662 31.89327 39.638195 46.833187 49.600796 54.582096 60.117317 68.980049 75.76059 78.528198 83.509499 87.383957 90.428528 95.409828 99.31218 107.61401 113.69917 121.51682 124.28443 128.15889 135.63083 141.16606 146.70128">,GoogleCloudPlatform,GitHub,</tspan></text>
<text
       id="text360"
       style="font-variant:normal;font-weight:normal;font-size:9.96259975px;font-family:CMBX10;-inkscape-font-specification:CMBX10;writing-mode:lr-tb;fill:#000000;fill-opacity:1;fill-rule:nonzero;stroke:none"
       transform="matrix(1,0,0,-1,432.011,208.082)"><tspan
         id="tspan356"
         y="0"
         x="0 6.8911304 10.073185 16.119486 22.484592 28.530893 35.528625 44.135315 50.50042 56.069511 60.7878 66.844063 73.209167 77.728203 84.725937 91.091042 97.456146 102.17443 105.35649 111.7216 121.26576 129.41617 135.46347 141.19196 145.64723">Linux,Quarkus,SpringBoot,</tspan><tspan
         id="tspan358"
         y="11.955"
         x="-392.41199 -386.49023 -377.67633 -371.31122 -368.12915">JUnit</tspan></text>
<text
       id="text364"
       style="font-variant:normal;font-weight:normal;font-size:9.96259975px;font-family:CMR10;-inkscape-font-specification:CMR10;writing-mode:lr-tb;fill:#000000;fill-opacity:1;fill-rule:nonzero;stroke:none"
       transform="matrix(1,0,0,-1,68.338,196.127)"><tspan
         id="tspan362"
         y="0"
         x="0 5.9954925 13.190482 18.171782 22.32021 27.855429 30.623039 36.15826 44.347519 48.276768 52.151222 56.053574 61.034874 64.909325 69.336708 74.318008 77.085617 81.513 85.442245 91.437737 100.57046 104.99783 108.93704 112.86629 117.8476 122.8289 130.45427 138.20319 143.7384 148.16579 153.701 158.12837 165.26558 169.14005 176.88895 181.87025 184.91483 189.62514 194.60645 200.60193 207.93541 212.9167 218.45192 223.98714 226.75476 230.62921 239.76192 247.51083 251.38528 257.36087 263.58749 268.56879 273.55008 282.28329 289.33981 294.32111 297.08871 302.07001 307.60522 312.03262 314.80023 320.33545 325.31674 331.31223 337.67834 347.91791 356.66107 360.53552 366.76215 371.74347 379.76633 385.58051 391.11572 396.09705 402.09253 408.87308 416.06805 421.04938 427.04486 432.58008 437.56137 441.43582 447.43134 454.90329 459.33066 464.86588 468.76822 473.19562">,Cachingstrategies,MessageQueues(Kafka,RabbitMQ),LoadBalancing,AWS(Lambda,EC2,S3),Azure,</tspan></text>
<text
       id="text370"
       style="font-variant:normal;font-weight:normal;font-size:9.96259975px;font-family:CMBX10;-inkscape-font-specification:CMBX10;writing-mode:lr-tb;fill:#000000;fill-opacity:1;fill-rule:nonzero;stroke:none"
       transform="matrix(1,0,0,-1,547.535,196.127)"><tspan
         id="tspan366"
         y="0"
         x="0 9.0081825 15.055481 20.783976 26.51247 29.694525">Google</tspan><tspan
         id="tspan368"
         y="11.955"
         x="-507.936 -499.66107 -496.479 -490.75052 -484.38541 -474.20462 -469.74936 -461.59894 -458.4169 -452.68842 -444.08173 -437.71661 -432.46533 -427.74704 -422.64719 -415.64944 -407.37451 -404.19244 -398.46396 -392.09885 -381.91809 -375.66556 -369.30045 -362.93533 -357.84344 -353.38818 -350.20612 -344.47763 -338.11252 -333.59348">Cloud(BigQuery,CloudFunctions)</tspan></text>
<text
       id="text378"
       style="font-variant:normal;font-weight:normal;font-size:9.96259975px;font-family:CMR10;-inkscape-font-specification:CMR10;writing-mode:lr-tb;fill:#000000;fill-opacity:1;fill-rule:nonzero;stroke:none"
       transform="matrix(1,0,0,-1,218.401,184.172)"><tspan
         id="tspan372"
         y="0"
         x="0 6.085156 12.45325 16.880629 22.41585 26.345098 31.326399 35.228748 41.732334 44.499947 49.202293 56.397282 62.492401 69.272949 74.531204 80.889336 85.870636 89.772987 93.921417 99.456635 105.55176 111.08698 115.51435 118.28197 123.54022 126.30784 130.1823 133.50282 136.27043 140.69781 145.67911 149.58147 155.11668 161.20184 168.95074 174.76492 179.19231 184.72752 191.92252 199.39447 205.47961 212.95157 218.48679 222.36125 227.34254 236.47527 246.01944 249.89389 255.15414 260.13544 262.90305 266.83231 272.91745 280.3894 285.3707 289.24515 294.7804 298.68274 303.66403 309.75916 315.98578 320.96707 326.50229 331.48361 337.01883 342.00012 346.98141">,TensorFlow,PyTorch,Scikit-learn,OpenCV,AutoMLtools,NaturalLanguage</tspan><tspan
         id="tspan374"
         y="11.955"
         x="-178.802 -172.02145 -168.11911 -162.85886 -158.43147 -154.00409 -150.07484 -146.1456 -143.37799 -137.84276 -129.54391 -125.66946 -118.19751 -111.97089 -105.19034 -101.31589 -95.230728 -88.035744 -83.054443 -74.742645 -69.217384 -63.682163 -59.807709 -55.380329 -48.150471 -40.67852 -37.910912 -33.981663 -31.21405 -26.232752 -20.697531 -14.612374 -7.2789044 -2.8515251 -0.083914861 5.4513059 8.4958763 13.477177 17.379526 21.806906 26.234285 34.536121 38.963501 44.219769 51.42173 57.648357 62.075737 67.057037 70.959389 76.494606 79.262215 84.79744 89.77874 95.863892 103.47433 108.73457 112.883 117.86231 122.28969 126.19204 132.27719 139.47218 144.45349 149.71971 153.59418 158.57547 161.34308 166.8783 171.30568 175.20804 177.97565 182.40302 187.38432 191.25877 194.02638 199.00769 204.54291 210.62807 218.37697 223.9122 229.72636 234.15375 238.05609 243.59132 248.01869 251.89316 256.32053 260.24979 266.33493 271.45471 275.88211 281.41733 286.67557 289.44318 294.97842 298.90765 304.99283 311.3609 315.7883 319.69064 323.59299 328.57428 331.61887 336.60016 340.5025 348.80435">Processing(NLP),ComputerVision,ReinforcementLearning,Docker,Containerization,Kubernetes,Jenkins,Terraform,</tspan><tspan
         id="tspan376"
         y="23.910999"
         x="-178.802 -171.19157 -165.93132 -161.7829 -156.80359 -152.37621 -148.47385 -145.70624 -141.27887 -136.85149 -127.98875 -118.85604 -109.31187 -101.01003 -95.749779 -90.214561 -85.787178 -83.019569 -79.090324">DockerizedMLmodels,</tspan></text>
<text
       id="text382"
       style="font-variant:normal;font-weight:normal;font-size:9.96259975px;font-family:CMBX10;-inkscape-font-specification:CMBX10;writing-mode:lr-tb;fill:#000000;fill-opacity:1;fill-rule:nonzero;stroke:none"
       transform="matrix(1,0,0,-1,145.397,160.261)"><tspan
         id="tspan380"
         y="0"
         x="0 8.5927429 13.844029 20.209133 26.57424 32.620541 39.618271 48.58461 54.313107 60.678211 69.284904 76.176033 83.183723 94.071854 99.323135 105.68824 112.05334 117.62244 122.39552">Redux,NoSQL,Webpack</tspan></text>
<text
       id="text386"
       style="font-variant:normal;font-weight:normal;font-size:9.96259975px;font-family:CMR10;-inkscape-font-specification:CMR10;writing-mode:lr-tb;fill:#000000;fill-opacity:1;fill-rule:nonzero;stroke:none"
       transform="matrix(1,0,0,-1,273.838,160.261)"><tspan
         id="tspan384"
         y="0"
         x="0 6.085156 11.066456 16.601677 25.464405 32.659397 36.256889 41.23819 48.433182 59.361156 64.896378 67.663986 73.478157 77.90554 80.673149 83.440758 88.975983 93.403358 97.332611">,andCI/CDpipelines.</tspan></text>
<text
       id="text392"
       style="font-variant:normal;font-weight:normal;font-size:9.96259975px;font-family:CMBX10;-inkscape-font-specification:CMBX10;writing-mode:lr-tb;fill:#000000;fill-opacity:1;fill-rule:nonzero;stroke:none"
       transform="matrix(1,0,0,-1,378.363,160.261)"><tspan
         id="tspan388"
         y="0"
         x="0 8.6614847 15.026589 20.755085 27.12019 30.302244 35.871338 40.589626 47.587357 56.258801 61.987297 65.16935 68.351402 73.602692 80.600426 85.692307 88.874359 94.602859 100.96796 111.14874 115.60402 120.8553 125.62839 131.99348 138.3586 144.0871 147.26915 152.99763 158.72614 161.90819 167.15947 171.67851">Angular,Agile,cloudtechnologies,</tspan><tspan
         id="tspan390"
         y="11.955"
         x="-338.76401 -329.79767 -324.06915 -317.70407 -309.09738 -302.20624 -295.2085 -286.61575 -281.04666 -274.68158 -271.49951 -265.1344 -260.61539 -253.60768 -249.08864 -243.36015 -239.8593 -235.72282 -227.76669 -222.1976 -217.47931 -208.41234 -202.04724 -196.79596 -191.06845 -185.81717 -182.63512 -176.90662 -170.54152 -160.99435 -155.74307 -149.69676 -141.41585 -138.2338 -135.05174 -131.55089 -122.48392 -117.39204 -111.34573 -106.25385 -103.0718">NoSQL,Radius,softwaredevelopmentlifecycle</tspan></text>
<text
       id="text396"
       style="font-variant:normal;font-weight:normal;font-size:11.9552002px;font-family:CMBX12;-inkscape-font-specification:CMBX12;writing-mode:lr-tb;fill:#000000;fill-opacity:1;fill-rule:nonzero;stroke:none"
       transform="matrix(1,0,0,-1,28.8,131.241)"><tspan
         id="tspan394"
         y="0"
         x="0 10.031609 16.168213 21.472734 27.609339 34.147636 39.641052 45.248039">Research</tspan></text>
<g
       transform="translate(28.8,126.858)"
       id="g398"><path
         id="path400"
         style="fill:none;stroke:#000000;stroke-width:0.398;stroke-linecap:butt;stroke-linejoin:miter;stroke-miterlimit:10;stroke-dasharray:none;stroke-opacity:1"
         d="M 0,0 H 553.68" /></g><text
       id="text408"
       style="font-variant:normal;font-weight:normal;font-size:9.96259975px;font-family:CMR10;-inkscape-font-specification:CMR10;writing-mode:lr-tb;fill:#000000;fill-opacity:1;fill-rule:nonzero;stroke:none"
       transform="matrix(1,0,0,-1,39.599,113.918)"><tspan
         id="tspan402"
         y="0"
         x="0 7.1949897 12.17629 17.71151 23.246731 28.781952 33.209332 37.083786 41.511166 50.363934 55.34523 58.112843 63.094143 68.629364 73.05674 78.03804 86.339874 94.648682 100.18391 104.61128 108.48574 112.91312 117.3405 121.21495 123.98257 128.96387 137.81664 141.71898 146.14636 150.07561 154.50299 159.48428 163.38664 167.53506 176.3978 181.93301 185.86226 188.62988 194.1651 202.46394 205.23155 213.53339 218.51469 223.49599 231.24091 236.77614 240.67848 245.93874 250.36612 254.79349 258.72275 262.65201 265.41962 270.95483 279.26364 284.24493 293.09769 297.80005 302.77936 307.20673 314.43658 319.41788 324.3992 332.69803 340.99988 345.42725 350.96246 353.73007 358.15747 363.13876 369.22391 371.99152 380.29337 385.27466 390.25595 394.68335 398.61258 404.7077 407.47531 415.77716 421.31238 424.07999 428.50735 436.8092 441.23657 446.49286 450.36731 453.13492 458.67014 466.96899 474.78662 482.25858 492.08966 497.07098 502.6062 511.45895 519.27661 527.09424 534.56622">Conductedglaucomadetectionresearchusingimageprocessingonover200medicalimages,implementingGVFandGGVF</tspan><tspan
         id="tspan404"
         y="11.955"
         x="0 4.9812999 7.7489104 12.73021 17.71151 21.613861 24.381472 28.255926 33.791145 42.092979 49.339775 52.107388 60.970116 66.089897 70.792244 75.492599 83.801407 88.782707 94.317924 103.17069 112.30341 118.9385 126.14346 132.37007 139.84203 146.89854 152.98369 157.965 162.11342 167.64864 170.41624 174.84363 180.10188 182.86951 188.40472 196.70357 201.68486 206.66617 218.29552 222.22476 226.65215 231.63344 239.93527 244.36266 249.61893 253.49338 258.47467 262.34912 265.11673 270.09805 278.95081 283.9321 288.3595 292.78687 298.32208 302.22443 307.20575 311.63312 320.21887 325.2002 329.62756 333.52991 338.51123 342.44046 349.68726 357.99606 363.52133 368.50262 372.37708 377.35837 381.29761 385.72498 389.59943 396.84622 402.38144 406.3107 409.07831 414.61353 422.91238 431.22119 436.75641 439.52402 443.45325 447.32773 450.09534 455.62057 460.05792 467.24994 475.55176 479.97913 483.85361 487.75595 490.52356 494.95093 502.19772 506.07217">algorithmsinJavaandMATLAB,achieving85%segmentationaccuracyacross3datasetsusing5distinctmetricsto</tspan><tspan
         id="tspan406"
         y="23.91"
         x="0 4.4273796 9.1277342 14.109035 16.876644 22.411865 27.393166 31.26762 39.022507 42.924858 47.352238 51.281487 56.816708 59.584316 63.458775 67.388023">evaluateresults.</tspan></text>
<text
       id="text412"
       style="font-variant:normal;font-weight:normal;font-size:11.9552002px;font-family:CMBX12;-inkscape-font-specification:CMBX12;writing-mode:lr-tb;fill:#000000;fill-opacity:1;fill-rule:nonzero;stroke:none"
       transform="matrix(1,0,0,-1,28.8,72.943)"><tspan
         id="tspan410"
         y="0"
         x="0 8.8277197 16.299719 23.771719 29.749319 36.287617 41.518017 45.254017 51.978817">Education</tspan></text>
<g
       transform="translate(28.8,68.56)"
       id="g414"><path
         id="path416"
         style="fill:none;stroke:#000000;stroke-width:0.398;stroke-linecap:butt;stroke-linejoin:miter;stroke-miterlimit:10;stroke-dasharray:none;stroke-opacity:1"
         d="M 0,0 H 553.68" /></g><text
       id="text420"
       style="font-variant:normal;font-weight:normal;font-size:9.96259975px;font-family:CMBX10;-inkscape-font-specification:CMBX10;writing-mode:lr-tb;fill:#000000;fill-opacity:1;fill-rule:nonzero;stroke:none"
       transform="matrix(1,0,0,-1,28.8,56.163)"><tspan
         id="tspan418"
         y="0"
         x="0 9.0081825 14.259469 19.987965 24.706251 30.434746 39.501709 50.389835 55.958927 60.477962 66.843071 70.025124 76.390228 82.118721 86.573997 92.30249 102.49323 111.30715 117.67226 120.85431 126.58181 131.8331 136.55138 141.07042 144.25247 148.38895 445.83133 454.49283 460.85791 470.4021 476.13058 481.85907 487.58759 497.13174 504.77606 515.65222 520.90253 530.76447 536.49298 542.2215 547.94995">GeorgeWashingtonUniversityAug2023-May2025</tspan></text>
<text
       id="text424"
       style="font-variant:normal;font-weight:normal;font-size:9.96259975px;font-family:CMTI10;-inkscape-font-specification:CMTI10;writing-mode:lr-tb;fill:#000000;fill-opacity:1;fill-rule:nonzero;stroke:none"
       transform="matrix(1,0,0,-1,28.8,44.207)"><tspan
         id="tspan422"
         y="0"
         x="0 8.9334631 14.025349 18.099056 21.40863 25.991426 33.759266 38.851151 45.463329 51.064304 55.647099 58.702629 63.285423 68.886398 72.961098 81.110504 84.166039 93.333618 100.46286 105.55474 113.70216 118.79404 124.14097 127.45055 132.03334 139.80118 145.40216 149.98495 153.04048 157.62328 163.22424 167.28899 171.87178 178.49393 186.20099 192.20146 199.60667 206.21884 211.31073 214.36626 219.45815 479.51288 489.46454 494.55643 498.63013 503.72202 506.77753 512.37854 516.9613 520.27087 525.36279 530.96375 537.58588 545.10767">MasterofScienceinComputerScience;GPA:3.80Washington,DC</tspan></text>
<text
       id="text428"
       style="font-variant:normal;font-weight:normal;font-size:9.96259975px;font-family:CMBX10;-inkscape-font-specification:CMBX10;writing-mode:lr-tb;fill:#000000;fill-opacity:1;fill-rule:nonzero;stroke:none"
       transform="matrix(1,0,0,-1,28.8,31.857)"><tspan
         id="tspan426"
         y="0"
         x="0 10.87617 16.445263 22.810369 25.992424 32.357529 37.92662 44.924351 49.269043 55.634148 60.153183 64.608459 67.790512 72.245789 78.610893 83.06617 92.143089 97.87159 105.18812 112.20179 117.45308 122.22616 128.59126 134.95638 140.68486 143.86691 149.59541 155.32391 445.83234 454.4938 460.85892 470.40308 476.13159 481.86008 487.58856 497.13275 504.77704 515.6532 520.9035 530.7655 536.49396 542.22247 547.95099">ManipalInstituteofTechnologyAug2018-May2022</tspan></text>
<text
       id="text432"
       style="font-variant:normal;font-weight:normal;font-size:9.96259975px;font-family:CMTI10;-inkscape-font-specification:CMTI10;writing-mode:lr-tb;fill:#000000;fill-opacity:1;fill-rule:nonzero;stroke:none"
       transform="matrix(1,0,0,-1,28.8,19.902)"><tspan
         id="tspan430"
         y="0"
         x="0 7.0126743 12.104559 16.687355 21.77924 26.362036 28.908476 34.000362 41.7682 46.860085 53.472263 60.229893 65.830872 70.413666 73.469193 79.070168 83.144875 87.727669 91.928894 94.984428 100.5854 105.1682 111.79034 119.4974 125.48792 132.89311 139.51526 144.60713 147.66267 152.75455 530.23401 534.07556 539.67657 544.76843 547.82397">BachelorofEngineering;GPA:3.60India</tspan></text>
</g></svg>